<?xml version="1.0" standalone="no"?>
<!DOCTYPE svg PUBLIC "-//W3C//DTD SVG 20010904//EN"
 "http://www.w3.org/TR/2001/REC-SVG-20010904/DTD/svg10.dtd">
<svg version="1.0" xmlns="http://www.w3.org/2000/svg"
 width="1163.000000pt" height="1163.000000pt" viewBox="0 0 1163.000000 1163.000000"
 preserveAspectRatio="xMidYMid meet">
<metadata>
Created by potrace 1.11, written by Peter Selinger 2001-2013
</metadata>
<g transform="translate(0.000000,1163.000000) scale(0.100000,-0.100000)"
fill="#000000" stroke="none">
<path d="M5748 11625 c-2 -2 -35 -6 -75 -9 -40 -4 -78 -8 -85 -11 -7 -2 -32
-6 -56 -9 -24 -3 -47 -8 -51 -10 -4 -3 -23 -8 -42 -11 -70 -13 -248 -77 -355
-129 -211 -104 -327 -192 -589 -448 -93 -91 -219 -214 -280 -273 -60 -59 -247
-241 -415 -405 -168 -164 -350 -342 -405 -395 -172 -168 -749 -731 -959 -936
-111 -109 -249 -244 -308 -300 -153 -149 -650 -634 -788 -769 -64 -63 -249
-243 -410 -400 -252 -246 -335 -328 -410 -410 -170 -184 -335 -511 -395 -785
-109 -494 -18 -1002 253 -1415 74 -114 128 -177 297 -355 78 -82 161 -169 183
-193 23 -24 105 -111 183 -193 79 -83 163 -172 189 -198 57 -61 364 -382 410
-431 85 -89 342 -359 380 -400 23 -25 110 -116 194 -203 83 -87 173 -182 200
-210 51 -55 346 -366 406 -428 144 -151 343 -360 370 -389 18 -19 108 -114
200 -210 92 -96 184 -193 204 -215 21 -22 102 -107 181 -190 79 -82 166 -174
194 -204 409 -433 589 -617 666 -679 39 -31 72 -59 75 -62 19 -21 184 -120
275 -164 91 -45 251 -106 315 -121 84 -20 218 -45 270 -51 93 -10 303 -11 385
-1 288 34 586 143 810 296 130 89 179 134 620 566 95 93 684 667 820 800 50
50 233 228 406 397 173 168 359 350 414 403 55 54 186 181 291 284 173 169
731 714 959 936 800 780 811 791 881 880 215 277 338 571 384 920 9 74 6 426
-4 485 -54 294 -133 505 -274 725 -81 127 -125 180 -295 359 -32 33 -116 121
-185 195 -70 73 -147 155 -172 180 -46 48 -336 353 -400 421 -51 54 -338 356
-385 405 -22 23 -105 110 -185 194 -80 84 -170 179 -200 211 -30 31 -91 95
-135 142 -44 46 -154 162 -245 257 -91 96 -185 195 -210 221 -25 26 -113 119
-196 206 -84 88 -169 177 -190 200 -22 23 -109 114 -194 203 -85 90 -175 184
-200 210 -151 160 -341 360 -380 401 -25 25 -85 89 -135 141 -49 52 -160 169
-245 258 -85 90 -182 190 -215 222 -261 252 -611 425 -960 474 -16 2 -48 7
-70 11 -37 6 -312 14 -317 9z"/>
</g>
</svg>
